<?xml version="1.0" encoding="iso-8859-1"?>
<!-- Generator: Adobe Illustrator 16.0.0, SVG Export Plug-In . SVG Version: 6.00 Build 0)  -->
<!DOCTYPE svg PUBLIC "-//W3C//DTD SVG 1.1//EN" "http://www.w3.org/Graphics/SVG/1.1/DTD/svg11.dtd">
<svg version="1.1" id="Capa_1" xmlns="http://www.w3.org/2000/svg" xmlns:xlink="http://www.w3.org/1999/xlink" x="0px" y="0px"
	 width="429.908px" height="429.908px" viewBox="0 0 429.908 429.908" style="enable-background:new 0 0 429.908 429.908;"
	 xml:space="preserve">
<g>
	<g>
		<path fill="white" d="M419.997,45.771H9.912C4.438,45.771,0,50.209,0,55.684V85.67c0,4.582,3.14,8.566,7.595,9.638l203.125,75.503
			c1.27,0.559,2.627,0.837,3.984,0.837c1.366,0,2.731-0.282,4.009-0.847l203.558-75.707c4.476-1.055,7.638-5.05,7.638-9.647V55.684
			C429.908,50.209,425.471,45.771,419.997,45.771z"/>
		<path fill="white" d="M426.05,145.945c-2.433-1.876-5.6-2.517-8.571-1.736L217.518,220.17c0,0-1.631,0.703-2.776,0.703
			c-1.146,0-2.783-0.695-2.783-0.695L12.47,144.465c-2.975-0.795-6.152-0.162-8.595,1.714S0,150.96,0,154.041v220.186
			c0,5.475,4.438,9.91,9.912,9.91h410.085c5.474,0,9.911-4.438,9.911-9.91V153.794C429.908,150.723,428.483,147.822,426.05,145.945z
			"/>
	</g>
</g>
<g>
</g>
<g>
</g>
<g>
</g>
<g>
</g>
<g>
</g>
<g>
</g>
<g>
</g>
<g>
</g>
<g>
</g>
<g>
</g>
<g>
</g>
<g>
</g>
<g>
</g>
<g>
</g>
<g>
</g>
</svg>
