<?xml version="1.0" encoding="utf-8"?>
<!-- Generator: Adobe Illustrator 16.0.0, SVG Export Plug-In . SVG Version: 6.00 Build 0)  -->
<!DOCTYPE svg PUBLIC "-//W3C//DTD SVG 1.1//EN" "http://www.w3.org/Graphics/SVG/1.1/DTD/svg11.dtd">
<svg version="1.1" id="Layer_1" xmlns="http://www.w3.org/2000/svg" xmlns:xlink="http://www.w3.org/1999/xlink" x="0px" y="0px"
	 width="800px" height="800px" viewBox="0 0 800 800" enable-background="new 0 0 800 800" xml:space="preserve">
<path fill="white" d="M684.896,10H115.103C57.059,10,10,57.058,10,115.102v569.787c0,58.05,47.059,105.102,105.103,105.102h281.018l0.483-278.72
	h-72.419c-9.411,0-17.051-7.614-17.08-17.022l-0.353-89.851c-0.039-9.458,7.63-17.152,17.087-17.152h72.291v-86.814
	c0-100.741,61.527-155.599,151.398-155.599h73.752c9.429,0,17.088,7.648,17.088,17.086v75.756c0,9.438-7.649,17.087-17.078,17.087
	l-45.262,0.026c-48.876,0-58.342,23.22-58.342,57.31v75.156h107.396c10.239,0,18.177,8.937,16.966,19.09l-10.649,89.851
	c-1.016,8.602-8.311,15.077-16.966,15.077h-96.262L517.687,790h167.21C742.94,790,790,742.938,790,684.896V115.102
	C790,57.058,742.94,10,684.896,10"/>
</svg>
